<svg xmlns="http://www.w3.org/2000/svg" width="512" height="256" viewBox="0 0 512 256" fill="none">
  <defs>
    <g id="frame-0">
      <rect x="2.5" y="2.5" width="123" height="123" stroke="#2F4265" stroke-width="3"/>
      <circle cx="64" cy="57" r="30" fill="#E5BD4E"/>
      <rect x="34" y="27" width="60" height="60" fill="#F7F5EE"/>
      <circle cx="64" cy="57" r="30" stroke="#2F4265" stroke-width="3"/>
      <path d="M49 82C49 92 55 98 64 98C73 98 79 92 79 82" stroke="#2F4265" stroke-width="3" fill="none"/>
      <rect x="52" y="97" width="24" height="14" rx="6" stroke="#2F4265" stroke-width="3" fill="#F7F5EE"/>
      <line x1="53" y1="102" x2="75" y2="102" stroke="#2F4265" stroke-width="2"/>
      <line x1="53" y1="107" x2="75" y2="107" stroke="#2F4265" stroke-width="2"/>
    </g>
    <g id="frame-1">
      <rect x="2.5" y="2.5" width="123" height="123" stroke="#2F4265" stroke-width="3"/>
      <circle cx="64" cy="57" r="30" fill="#E5BD4E"/>
      <rect x="34" y="27" width="60" height="50" fill="#F7F5EE"/>
      <circle cx="64" cy="57" r="30" stroke="#2F4265" stroke-width="3"/>
      <path d="M49 82C49 92 55 98 64 98C73 98 79 92 79 82" stroke="#2F4265" stroke-width="3" fill="none"/>
      <rect x="52" y="97" width="24" height="14" rx="6" stroke="#2F4265" stroke-width="3" fill="#F7F5EE"/>
      <line x1="53" y1="102" x2="75" y2="102" stroke="#2F4265" stroke-width="2"/>
      <line x1="53" y1="107" x2="75" y2="107" stroke="#2F4265" stroke-width="2"/>
    </g>
    <g id="frame-2">
      <rect x="2.5" y="2.5" width="123" height="123" stroke="#2F4265" stroke-width="3"/>
      <circle cx="64" cy="57" r="30" fill="#E5BD4E"/>
      <rect x="34" y="27" width="60" height="42" fill="#F7F5EE"/>
      <circle cx="64" cy="57" r="30" stroke="#2F4265" stroke-width="3"/>
      <path d="M49 82C49 92 55 98 64 98C73 98 79 92 79 82" stroke="#2F4265" stroke-width="3" fill="none"/>
      <rect x="52" y="97" width="24" height="14" rx="6" stroke="#2F4265" stroke-width="3" fill="#F7F5EE"/>
      <line x1="53" y1="102" x2="75" y2="102" stroke="#2F4265" stroke-width="2"/>
      <line x1="53" y1="107" x2="75" y2="107" stroke="#2F4265" stroke-width="2"/>
    </g>
    <g id="frame-3">
      <rect x="2.5" y="2.5" width="123" height="123" stroke="#2F4265" stroke-width="3"/>
      <circle cx="64" cy="57" r="30" fill="#E5BD4E"/>
      <rect x="34" y="27" width="60" height="34" fill="#F7F5EE"/>
      <circle cx="64" cy="57" r="30" stroke="#2F4265" stroke-width="3"/>
      <path d="M49 82C49 92 55 98 64 98C73 98 79 92 79 82" stroke="#2F4265" stroke-width="3" fill="none"/>
      <rect x="52" y="97" width="24" height="14" rx="6" stroke="#2F4265" stroke-width="3" fill="#F7F5EE"/>
      <line x1="53" y1="102" x2="75" y2="102" stroke="#2F4265" stroke-width="2"/>
      <line x1="53" y1="107" x2="75" y2="107" stroke="#2F4265" stroke-width="2"/>
    </g>
    <g id="frame-4">
      <rect x="2.5" y="2.5" width="123" height="123" stroke="#2F4265" stroke-width="3"/>
      <circle cx="64" cy="57" r="30" fill="#E5BD4E"/>
      <rect x="34" y="27" width="60" height="26" fill="#F7F5EE"/>
      <circle cx="64" cy="57" r="30" stroke="#2F4265" stroke-width="3"/>
      <path d="M49 82C49 92 55 98 64 98C73 98 79 92 79 82" stroke="#2F4265" stroke-width="3" fill="none"/>
      <rect x="52" y="97" width="24" height="14" rx="6" stroke="#2F4265" stroke-width="3" fill="#F7F5EE"/>
      <line x1="53" y1="102" x2="75" y2="102" stroke="#2F4265" stroke-width="2"/>
      <line x1="53" y1="107" x2="75" y2="107" stroke="#2F4265" stroke-width="2"/>
    </g>
    <g id="frame-5">
      <rect x="2.5" y="2.5" width="123" height="123" stroke="#2F4265" stroke-width="3"/>
      <circle cx="64" cy="57" r="30" fill="#E5BD4E"/>
      <rect x="34" y="27" width="60" height="18" fill="#F7F5EE"/>
      <circle cx="64" cy="57" r="30" stroke="#2F4265" stroke-width="3"/>
      <path d="M49 82C49 92 55 98 64 98C73 98 79 92 79 82" stroke="#2F4265" stroke-width="3" fill="none"/>
      <rect x="52" y="97" width="24" height="14" rx="6" stroke="#2F4265" stroke-width="3" fill="#F7F5EE"/>
      <line x1="53" y1="102" x2="75" y2="102" stroke="#2F4265" stroke-width="2"/>
      <line x1="53" y1="107" x2="75" y2="107" stroke="#2F4265" stroke-width="2"/>
    </g>
    <g id="frame-6">
      <rect x="2.5" y="2.5" width="123" height="123" stroke="#2F4265" stroke-width="3"/>
      <circle cx="64" cy="57" r="30" fill="#E5BD4E"/>
      <circle cx="64" cy="57" r="30" stroke="#2F4265" stroke-width="3"/>
      <path d="M49 82C49 92 55 98 64 98C73 98 79 92 79 82" stroke="#2F4265" stroke-width="3" fill="none"/>
      <rect x="52" y="97" width="24" height="14" rx="6" stroke="#2F4265" stroke-width="3" fill="#F7F5EE"/>
      <line x1="53" y1="102" x2="75" y2="102" stroke="#2F4265" stroke-width="2"/>
      <line x1="53" y1="107" x2="75" y2="107" stroke="#2F4265" stroke-width="2"/>
      <circle cx="64" cy="57" r="36" fill="#E5BD4E" opacity="0.22"/>
    </g>
    <g id="frame-7">
      <rect x="2.5" y="2.5" width="123" height="123" stroke="#2F4265" stroke-width="3"/>
      <circle cx="64" cy="57" r="30" fill="#E5BD4E"/>
      <circle cx="64" cy="57" r="30" stroke="#2F4265" stroke-width="3"/>
      <path d="M49 82C49 92 55 98 64 98C73 98 79 92 79 82" stroke="#2F4265" stroke-width="3" fill="none"/>
      <rect x="52" y="97" width="24" height="14" rx="6" stroke="#2F4265" stroke-width="3" fill="#F7F5EE"/>
      <line x1="53" y1="102" x2="75" y2="102" stroke="#2F4265" stroke-width="2"/>
      <line x1="53" y1="107" x2="75" y2="107" stroke="#2F4265" stroke-width="2"/>
      <circle cx="64" cy="57" r="40" fill="#E5BD4E" opacity="0.24"/>
      <line x1="64" y1="14" x2="64" y2="2" stroke="#E5BD4E" stroke-width="3" stroke-linecap="round"/>
      <line x1="64" y1="112" x2="64" y2="124" stroke="#E5BD4E" stroke-width="3" stroke-linecap="round"/>
      <line x1="21" y1="57" x2="9" y2="57" stroke="#E5BD4E" stroke-width="3" stroke-linecap="round"/>
      <line x1="107" y1="57" x2="119" y2="57" stroke="#E5BD4E" stroke-width="3" stroke-linecap="round"/>
      <line x1="33" y1="26" x2="25" y2="18" stroke="#E5BD4E" stroke-width="3" stroke-linecap="round"/>
      <line x1="95" y1="88" x2="103" y2="96" stroke="#E5BD4E" stroke-width="3" stroke-linecap="round"/>
      <line x1="33" y1="88" x2="25" y2="96" stroke="#E5BD4E" stroke-width="3" stroke-linecap="round"/>
      <line x1="95" y1="26" x2="103" y2="18" stroke="#E5BD4E" stroke-width="3" stroke-linecap="round"/>
    </g>
  </defs>

  <use href="#frame-0" x="0" y="0"/>
  <use href="#frame-1" x="128" y="0"/>
  <use href="#frame-2" x="256" y="0"/>
  <use href="#frame-3" x="384" y="0"/>
  <use href="#frame-4" x="0" y="128"/>
  <use href="#frame-5" x="128" y="128"/>
  <use href="#frame-6" x="256" y="128"/>
  <use href="#frame-7" x="384" y="128"/>
</svg>
